# xmcd
#
# Track frame offsets: 
#        150
#        11928
#        34415
#        59599
#        87406
#        110292
#        132455
#        170259
#        213228
#        236693
#        263293
#
# Disc length: 3849 seconds
#
# Revision: 1
# Processed by: cddbd v1.5.2PL0 Copyright (c) Steve Scherf et al.
# Submitted via: ExactAudioCopy v1.0b3
#
DISCID=960f070b
DTITLE=Layla Zoe - The lily
DYEAR=2013
DGENRE=Rock
TTITLE0=Glory, glory, hallelujah
TTITLE1=In her mother's house
TTITLE2=Green eyed lover
TTITLE3=Gemini heart
TTITLE4=Never met a man like you
TTITLE5=Why you so afraid
TTITLE6=Father
TTITLE7=The lily
TTITLE8=I choose you
TTITLE9=They lie
TTITLE10=Hey, hey, my, my
EXTD=
EXTT0=
EXTT1=
EXTT2=
EXTT3=
EXTT4=
EXTT5=
EXTT6=
EXTT7=
EXTT8=
EXTT9=
EXTT10=
PLAYORDER=
